<?xml version="1.0" encoding="UTF-8"? fill="green">
<svg version="1.1" xmlns="http://www.w3.org/2000/svg" width="512" height="512">
<path d="M0 0 C11.26792386 -0.21268491 22.19588368 0.28247711 33.375 1.6875 C34.10234344 1.77614319 34.82968689 1.86478638 35.57907104 1.95611572 C58.37518845 4.74459563 80.78032808 9.1999858 103 15 C104.47001465 15.38212646 104.47001465 15.38212646 105.96972656 15.77197266 C136.78788226 23.92370704 167.1538405 36.06739176 193 55 C193.58007812 55.42071777 194.16015625 55.84143555 194.7578125 56.27490234 C214.7147546 70.89643949 229.80640507 88.43365682 240 111 C240.40863281 111.89203125 240.81726563 112.7840625 241.23828125 113.703125 C253.98211966 143.42234662 252.52203133 178.22646428 243.671875 208.78515625 C242.29663594 215.36551523 245.21544562 219.48355301 248.4375 225 C261.74919288 248.46802152 271.24253042 273.20261095 279 299 C279.54527344 298.12859375 280.09054687 297.2571875 280.65234375 296.359375 C287.60084892 285.34512263 294.98039059 274.92113459 303.859375 265.3515625 C304.56578125 264.57554687 305.2721875 263.79953125 306 263 C307.42119141 261.77410156 307.42119141 261.77410156 308.87109375 260.5234375 C310.72809844 258.26600054 310.99860043 257.18549177 311.02099609 254.21728516 C310.58484196 250.77558508 309.98058859 247.40421397 309.3125 244 C308.89440398 241.55320829 308.48285827 239.10528756 308.078125 236.65625 C307.88283203 235.49351562 307.68753906 234.33078125 307.48632812 233.1328125 C303.83968014 209.64195559 311.55526669 184.22760694 325.09375 165.03125 C327.3004881 162.2488411 329.59606408 159.61380334 332 157 C332.43795898 156.51966309 332.87591797 156.03932617 333.32714844 155.54443359 C345.28498601 142.5697157 359.38616932 133.06494849 375 125 C375.96897217 124.49605713 375.96897217 124.49605713 376.95751953 123.98193359 C416.71938231 103.58894021 467.30560608 92 512 92 C511.3268698 116.53559566 507.73827472 141.15316691 502 165 C501.67177246 166.36463379 501.67177246 166.36463379 501.33691406 167.75683594 C491.19209713 208.99868241 473.14368596 254.40079847 435.6875 278.1875 C419.08609451 287.94276514 402.39634743 293.25363309 383.0625 293.0625 C382.18787109 293.05798828 381.31324219 293.05347656 380.41210938 293.04882812 C378.27470953 293.03714834 376.13734537 293.01921689 374 293 C376.9361748 256.75342839 395.71146272 222.34606828 419 195 C413.46028005 198.99462179 408.33450387 203.24456246 403.375 207.9375 C402.68768799 208.5864624 402.00037598 209.2354248 401.29223633 209.90405273 C372.72884191 237.14120748 350.61948769 270.15309213 331.51953125 304.51171875 C329.65880561 307.84952305 327.75024646 311.15649669 325.82421875 314.45703125 C313.78974985 335.18509849 305.15362829 356.37331118 299.125 379.5625 C298.90948486 380.37130615 298.69396973 381.1801123 298.47192383 382.01342773 C298.18031372 383.1843396 298.18031372 383.1843396 297.8828125 384.37890625 C297.71152832 385.0551001 297.54024414 385.73129395 297.36376953 386.42797852 C296.4202743 393.09893303 297.05181402 399.89096467 297.62109375 406.57421875 C297.75318735 408.21286333 297.88492773 409.85153641 298.01635742 411.49023438 C298.11985001 412.76193481 298.11985001 412.76193481 298.22543335 414.05932617 C299.67637877 432.0411106 300.66548331 449.95943704 301 468 C301.04084717 469.71050537 301.04084717 469.71050537 301.08251953 471.45556641 C301.15737544 474.74122302 301.20843766 478.02627057 301.25 481.3125 C301.27151123 482.26705078 301.29302246 483.22160156 301.31518555 484.20507812 C301.35913571 493.44622288 299.34390841 500.59047299 292.8671875 507.3359375 C287.18988107 512.39562901 281.52522196 512.53759171 274.16015625 512.3515625 C267.26570672 511.58456564 262.37350391 508.34539367 258 503 C253.83483115 496.70547649 253.36122434 490.90510744 253.2421875 483.49609375 C253.19249565 481.84145111 253.19249565 481.84145111 253.14179993 480.15338135 C253.07283389 477.80001474 253.01206355 475.44639592 252.95883179 473.09262085 C252.84580647 468.16464304 252.68826028 463.23840006 252.5330658 458.31159973 C252.45657749 455.8720354 252.38207131 453.43240809 252.30958557 450.99272156 C251.2233696 414.43502675 247.62384328 377.80642767 240 342 C239.76667969 340.89640137 239.53335938 339.79280273 239.29296875 338.65576172 C236.26391066 324.51678268 232.72340579 310.66864964 228 297 C227.58572754 295.77756592 227.17145508 294.55513184 226.74462891 293.2956543 C223.09087224 282.62875981 218.88489422 272.26843427 214.375 261.9375 C214.02617767 261.13495789 213.67735535 260.33241577 213.31796265 259.5055542 C204.21920209 238.60451376 194.03506223 218.47862415 182.59277344 198.75439453 C181.09027255 196.15610896 179.60972757 193.54647974 178.1328125 190.93359375 C165.71456446 169.21052837 151.48123422 148.3959271 137 128 C137.25056152 128.60021973 137.50112305 129.20043945 137.75927734 129.81884766 C153.03283473 166.6347014 168.49291021 207.66644072 168.0625 248.125 C168.05347656 249.24132812 168.04445312 250.35765625 168.03515625 251.5078125 C168.01775391 252.74144531 168.01775391 252.74144531 168 254 C138.0968337 255.11363516 107.47855718 246.82722275 84.8125 226.5 C83.99523437 225.73429688 83.17796875 224.96859375 82.3359375 224.1796875 C80.25918759 222.24185062 78.12624859 220.43309666 75.9375 218.625 C70.97686081 214.29191155 67.02916281 209.18625572 63 204 C62.25621094 203.06027344 61.51242188 202.12054688 60.74609375 201.15234375 C55.24942236 194.04968837 50.51608753 186.65670827 46.06884766 178.87060547 C45.07242805 177.12675736 44.05836732 175.39302208 43.04296875 173.66015625 C14.41008325 122.75076921 2.35130089 57.92674852 0 0 Z " fill="#000000" transform="translate(0,0)"/>
</svg>
